<mxfile host="app.diagrams.net" modified="2024-11-05T07:07:06.912Z" agent="Mozilla/5.0 (Windows NT 10.0; Win64; x64) AppleWebKit/537.36 (KHTML, like Gecko) Chrome/130.0.0.0 Safari/537.36 Edg/130.0.0.0" version="24.4.7" etag="grAsLphY22w4zWKyesCL" type="github">
  <diagram name="第 1 页" id="XgG0iOLfQ90kn-Q1ewlK">
    <mxGraphModel>
      <root>
        <mxCell id="0" />
        <mxCell id="1" parent="0" />
      </root>
    </mxGraphModel>
  </diagram>
</mxfile>
